# xmcd
#
# Track frame offsets:
#	150
#	20225
#	37587
#	54545
#	73292
#	88827
#	108955
#	130035
#	153505
#	172460
#	192535
#	211965
#	235697
#	252267
#	274610
#
# Disc length: 3871
#
# Revision: 1
# Processed by: cddbd v1.5.1PL0 Copyright (c) Steve Scherf et al.
# Submitted via: CDex 1.51
# Normalized: r0:TRMNUM
#
DISCID=d90f1d0f
DTITLE=テレサ・テン - 〜So long〜テレサ・テン ぱーふぇくとコレクション テレサ・テン ディスク： 2
DYEAR=2000
DGENRE=JPop
TTITLE0=ふたたびの
TTITLE1=つぐない
TTITLE2=愛人
TTITLE3=時の流れに身をまかせ
TTITLE4=スキャンダル
TTITLE5=別れの予感
TTITLE6=恋人たちの神話
TTITLE7=香港~Hong Kong~
TTITLE8=悲しい自由
TTITLE9=涙の条件
TTITLE10=悲しみと踊らせて
TTITLE11=愛の陽差し~アモーレ・ミオ~
TTITLE12=夕凪
TTITLE13=あなたと共に生きてゆく
TTITLE14=夜来香~日本語バージョン~
EXTD=YEAR: 2000
EXTT0=
EXTT1=
EXTT2=
EXTT3=
EXTT4=
EXTT5=
EXTT6=
EXTT7=
EXTT8=
EXTT9=
EXTT10=
EXTT11=
EXTT12=
EXTT13=
EXTT14=
PLAYORDER=
